<mxfile host="app.diagrams.net" modified="2023-10-11T14:23:33.346Z" agent="Mozilla/5.0 (Windows NT 10.0; Win64; x64) AppleWebKit/537.36 (KHTML, like Gecko) Chrome/116.0.0.0 Safari/537.36 OPR/102.0.0.0" version="22.0.4" etag="axFwoYhnc7WT5JZGBtNf" type="github">
  <diagram name="Page-1" id="aHFMZZG_7BotGzDkj32l">
    <mxGraphModel>
      <root>
        <mxCell id="0" />
        <mxCell id="1" parent="0" />
      </root>
    </mxGraphModel>
  </diagram>
</mxfile>
